<?xml version="1.0" encoding="UTF-8" standalone="no"?>
<svg
   xmlns:dc="http://purl.org/dc/elements/1.1/"
   xmlns:cc="http://creativecommons.org/ns#"
   xmlns:rdf="http://www.w3.org/1999/02/22-rdf-syntax-ns#"
   xmlns:svg="http://www.w3.org/2000/svg"
   xmlns="http://www.w3.org/2000/svg"
   xmlns:sodipodi="http://sodipodi.sourceforge.net/DTD/sodipodi-0.dtd"
   xmlns:inkscape="http://www.inkscape.org/namespaces/inkscape"
   viewBox="0 0 423 104"
   preserveAspectRatio="xMidYMid meet"
   class="css-1y5supu"
   id="hadadhfh"
   version="1.1"
   sodipodi:docname="logo.svg"
   inkscape:version="0.92.2 2405546, 2018-03-11"
   width="423"
   height="104">
  <metadata
     id="metadata70">
    <rdf:RDF>
      <cc:Work
         rdf:about="">
        <dc:format>image/svg+xml</dc:format>
        <dc:type
           rdf:resource="http://purl.org/dc/dcmitype/StillImage" />
        <dc:title></dc:title>
      </cc:Work>
    </rdf:RDF>
  </metadata>
  <sodipodi:namedview
     pagecolor="#ffffff"
     bordercolor="#666666"
     borderopacity="1"
     objecttolerance="10"
     gridtolerance="10"
     guidetolerance="10"
     inkscape:pageopacity="0"
     inkscape:pageshadow="2"
     inkscape:window-width="1920"
     inkscape:window-height="1043"
     id="namedview68"
     showgrid="false"
     inkscape:zoom="0.78199052"
     inkscape:cx="211"
     inkscape:cy="51.5"
     inkscape:window-x="0"
     inkscape:window-y="0"
     inkscape:window-maximized="1"
     inkscape:current-layer="hadadhfh" />
  <defs
     id="SvgjsDefs1011" />
  <rect
     style="fill:#f7e327;fill-opacity:1"
     id="rect4580"
     width="433.50909"
     height="108.69697"
     x="-2.5575757"
     y="-0.86060607"
     inkscape:export-filename="/home/bram/SvgjsG1015.png"
     inkscape:export-xdpi="529.92657"
     inkscape:export-ydpi="529.92657" />
  <g
     id="SvgjsG1012"
     featurekey="root"
     style="fill:#f7e327"
     transform="translate(0,1)" />
  <g
     id="SvgjsG1013"
     featurekey="symbol1"
     transform="matrix(0.75561458,0,0,0.75561458,7.1478695,16.796761)"
     style="fill:#000000"
     inkscape:export-filename="/home/bram/SvgjsG1015.png"
     inkscape:export-xdpi="529.92657"
     inkscape:export-ydpi="529.92657">
    <g
       id="g58">
      <path
         d="M 18.652,7.175 6.854,8.154 C 6.642,8.171 6.459,8.198 6.312,8.229 6.165,8.262 6.052,8.3 5.979,8.342 5.905,8.384 5.872,8.43 5.881,8.476 5.89,8.523 5.944,8.571 6.047,8.618 l 6.042,2.75 c 0.112,0.051 0.264,0.096 0.443,0.133 0.18,0.037 0.386,0.066 0.607,0.087 0.222,0.021 0.455,0.032 0.691,0.034 0.235,10e-4 0.47,-0.006 0.692,-0.026 L 26.854,10.5 c 0.214,-0.019 0.393,-0.047 0.534,-0.082 0.141,-0.034 0.242,-0.076 0.302,-0.121 0.06,-0.044 0.078,-0.093 0.05,-0.142 -0.028,-0.05 -0.101,-0.1 -0.222,-0.149 L 20.942,7.374 C 20.831,7.33 20.683,7.291 20.511,7.258 20.34,7.226 20.144,7.2 19.937,7.182 19.729,7.164 19.511,7.155 19.293,7.153 19.075,7.151 18.857,7.158 18.652,7.175"
         id="path4"
         inkscape:connector-curvature="0"
         style="fill:#000000" />
      <path
         d="M 36.764,5.673 25.584,6.6 c -0.201,0.017 -0.371,0.042 -0.504,0.072 -0.133,0.031 -0.231,0.067 -0.29,0.107 -0.058,0.04 -0.077,0.083 -0.053,0.127 0.024,0.045 0.091,0.09 0.205,0.134 l 6.713,2.602 c 0.124,0.048 0.286,0.09 0.471,0.126 0.186,0.035 0.395,0.062 0.616,0.082 0.22,0.02 0.452,0.031 0.681,0.033 0.229,0.002 0.455,-0.006 0.665,-0.025 L 45.737,8.824 C 45.939,8.805 46.105,8.779 46.232,8.746 46.358,8.714 46.445,8.675 46.49,8.633 46.535,8.591 46.538,8.545 46.496,8.498 46.454,8.452 46.369,8.404 46.236,8.358 L 39.053,5.864 C 38.931,5.822 38.775,5.784 38.598,5.754 38.422,5.724 38.223,5.699 38.017,5.683 37.809,5.666 37.594,5.656 37.381,5.655 37.168,5.649 36.958,5.657 36.764,5.673"
         id="path6"
         inkscape:connector-curvature="0"
         style="fill:#000000" />
      <path
         d="M 53.816,4.258 43.204,5.139 C 43.013,5.154 42.856,5.178 42.736,5.207 42.615,5.236 42.53,5.27 42.485,5.308 42.44,5.346 42.434,5.387 42.471,5.429 c 0.036,0.042 0.115,0.085 0.239,0.127 l 7.301,2.467 c 0.134,0.045 0.304,0.085 0.495,0.119 0.189,0.033 0.402,0.06 0.623,0.078 0.221,0.018 0.448,0.029 0.672,0.031 0.222,0.002 0.439,-0.006 0.637,-0.023 L 63.464,7.248 C 63.656,7.232 63.811,7.206 63.924,7.175 64.037,7.144 64.111,7.107 64.142,7.067 64.173,7.027 64.163,6.984 64.109,6.939 64.056,6.895 63.959,6.85 63.817,6.806 L 56.101,4.439 C 55.97,4.399 55.807,4.364 55.626,4.335 55.444,4.306 55.245,4.283 55.038,4.267 54.832,4.25 54.618,4.242 54.41,4.24 54.202,4.237 54.001,4.243 53.816,4.258"
         id="path8"
         inkscape:connector-curvature="0"
         style="fill:#000000" />
      <path
         d="m 29.2,11.451 -12.48,1.13 c -0.225,0.02 -0.416,0.051 -0.568,0.088 -0.152,0.037 -0.266,0.082 -0.338,0.13 -0.071,0.048 -0.1,0.101 -0.081,0.155 0.018,0.054 0.084,0.109 0.202,0.163 l 7.007,3.188 c 0.129,0.059 0.303,0.111 0.503,0.154 0.201,0.043 0.429,0.078 0.671,0.102 0.242,0.023 0.498,0.038 0.751,0.04 0.253,0.002 0.506,-0.008 0.742,-0.031 l 13.074,-1.276 c 0.227,-0.022 0.414,-0.055 0.558,-0.095 0.145,-0.04 0.246,-0.088 0.3,-0.14 0.056,-0.052 0.065,-0.108 0.025,-0.166 -0.04,-0.057 -0.129,-0.116 -0.27,-0.172 l -7.6,-3.042 c -0.128,-0.051 -0.294,-0.096 -0.485,-0.133 -0.19,-0.037 -0.406,-0.066 -0.631,-0.087 -0.226,-0.02 -0.463,-0.032 -0.697,-0.034 -0.234,-0.003 -0.466,0.007 -0.683,0.026"
         id="path10"
         inkscape:connector-curvature="0"
         style="fill:#000000" />
      <path
         d="m 48.3,9.721 -11.78,1.067 c -0.212,0.019 -0.389,0.048 -0.526,0.083 -0.137,0.036 -0.234,0.078 -0.289,0.123 -0.054,0.046 -0.066,0.095 -0.031,0.146 0.035,0.052 0.116,0.104 0.247,0.154 l 7.752,3.004 c 0.144,0.056 0.327,0.104 0.534,0.146 0.207,0.041 0.438,0.073 0.68,0.096 0.241,0.022 0.493,0.035 0.739,0.038 0.247,0.002 0.489,-0.008 0.71,-0.029 l 12.297,-1.2 c 0.214,-0.021 0.385,-0.052 0.514,-0.089 0.127,-0.038 0.212,-0.083 0.25,-0.132 0.039,-0.049 0.03,-0.102 -0.023,-0.156 -0.056,-0.054 -0.159,-0.109 -0.312,-0.163 L 50.792,9.938 C 50.653,9.89 50.479,9.847 50.282,9.813 50.086,9.778 49.868,9.75 49.643,9.73 49.418,9.71 49.184,9.7 48.955,9.698 48.727,9.695 48.504,9.703 48.3,9.721"
         id="path12"
         inkscape:connector-curvature="0"
         style="fill:#000000" />
      <path
         d="M 66.216,8.099 55.074,9.108 c -0.201,0.018 -0.364,0.045 -0.485,0.078 -0.123,0.033 -0.206,0.073 -0.244,0.117 -0.041,0.043 -0.037,0.09 0.01,0.138 0.049,0.049 0.144,0.098 0.285,0.146 l 8.396,2.836 c 0.155,0.053 0.347,0.099 0.56,0.137 0.213,0.038 0.447,0.068 0.688,0.09 0.241,0.021 0.489,0.033 0.729,0.035 0.24,0.002 0.471,-0.007 0.68,-0.028 l 11.592,-1.131 c 0.201,-0.02 0.359,-0.049 0.474,-0.085 0.113,-0.035 0.182,-0.078 0.207,-0.124 0.022,-0.046 0.001,-0.097 -0.068,-0.148 -0.068,-0.051 -0.185,-0.103 -0.349,-0.153 L 68.703,8.302 C 68.553,8.256 68.371,8.216 68.17,8.183 67.97,8.15 67.75,8.123 67.525,8.105 67.3,8.087 67.07,8.076 66.848,8.074 c -0.225,0 -0.439,0.008 -0.632,0.025"
         id="path14"
         inkscape:connector-curvature="0"
         style="fill:#000000" />
      <path
         d="m 41.385,16.39 -13.239,1.319 c -0.239,0.023 -0.439,0.059 -0.597,0.103 -0.157,0.044 -0.272,0.095 -0.34,0.152 -0.068,0.057 -0.088,0.118 -0.058,0.181 0.03,0.063 0.113,0.128 0.25,0.191 l 8.22,3.739 c 0.153,0.07 0.351,0.131 0.577,0.182 0.227,0.051 0.482,0.091 0.75,0.12 0.268,0.028 0.548,0.045 0.824,0.047 0.275,0.002 0.547,-0.009 0.798,-0.037 l 13.9,-1.504 c 0.24,-0.026 0.436,-0.064 0.584,-0.112 0.146,-0.047 0.245,-0.103 0.294,-0.164 0.048,-0.061 0.044,-0.127 -0.013,-0.195 -0.055,-0.066 -0.165,-0.135 -0.33,-0.201 l -8.88,-3.556 c -0.15,-0.06 -0.339,-0.112 -0.553,-0.155 -0.213,-0.043 -0.451,-0.078 -0.699,-0.102 -0.248,-0.024 -0.506,-0.038 -0.758,-0.039 -0.252,-0.002 -0.5,0.008 -0.73,0.031"
         id="path16"
         inkscape:connector-curvature="0"
         style="fill:#000000" />
      <path
         d="m 61.571,14.378 -12.44,1.239 c -0.225,0.022 -0.408,0.056 -0.548,0.096 -0.14,0.041 -0.235,0.09 -0.284,0.143 -0.049,0.053 -0.051,0.111 -0.002,0.17 0.048,0.06 0.147,0.121 0.3,0.179 l 9.049,3.507 c 0.169,0.065 0.378,0.123 0.612,0.17 0.233,0.047 0.49,0.085 0.758,0.112 0.267,0.026 0.541,0.041 0.81,0.043 0.268,0.002 0.526,-0.009 0.763,-0.034 l 13.006,-1.408 c 0.226,-0.024 0.403,-0.06 0.532,-0.104 0.13,-0.045 0.209,-0.097 0.238,-0.155 0.028,-0.057 0.007,-0.118 -0.065,-0.182 -0.073,-0.063 -0.199,-0.127 -0.378,-0.189 l -9.617,-3.339 c -0.162,-0.056 -0.36,-0.105 -0.58,-0.146 -0.219,-0.041 -0.46,-0.073 -0.707,-0.096 -0.246,-0.022 -0.5,-0.036 -0.746,-0.037 -0.247,0.001 -0.485,0.009 -0.701,0.031"
         id="path18"
         inkscape:connector-curvature="0"
         style="fill:#000000" />
      <path
         d="m 80.425,12.5 -11.716,1.167 c -0.211,0.021 -0.38,0.052 -0.503,0.09 -0.124,0.039 -0.203,0.084 -0.236,0.134 -0.031,0.05 -0.018,0.105 0.046,0.16 0.064,0.056 0.178,0.113 0.343,0.169 l 9.756,3.296 c 0.183,0.062 0.4,0.115 0.641,0.16 0.239,0.044 0.5,0.08 0.766,0.105 0.266,0.025 0.536,0.039 0.796,0.041 0.259,0.002 0.506,-0.007 0.727,-0.032 l 12.204,-1.32 c 0.211,-0.023 0.373,-0.057 0.486,-0.099 0.112,-0.041 0.175,-0.091 0.188,-0.145 0.013,-0.054 -0.024,-0.112 -0.113,-0.171 -0.089,-0.059 -0.228,-0.119 -0.418,-0.178 L 83.147,12.734 c -0.172,-0.053 -0.378,-0.1 -0.604,-0.138 -0.223,-0.038 -0.466,-0.069 -0.712,-0.09 -0.245,-0.021 -0.495,-0.034 -0.733,-0.035 -0.243,0 -0.47,0.008 -0.673,0.029"
         id="path20"
         inkscape:connector-curvature="0"
         style="fill:#000000" />
      <path
         d="m 5.168,50.549 0.417,11.609 c 0.007,0.202 0.034,0.414 0.076,0.62 0.042,0.208 0.099,0.411 0.167,0.602 0.069,0.189 0.148,0.364 0.236,0.513 0.087,0.149 0.182,0.271 0.28,0.356 l 5.767,5.048 c 0.106,0.092 0.207,0.14 0.297,0.142 0.091,0.003 0.171,-0.036 0.238,-0.115 0.066,-0.078 0.119,-0.194 0.153,-0.345 0.035,-0.151 0.05,-0.336 0.044,-0.548 L 12.484,56.243 c -0.006,-0.218 -0.035,-0.443 -0.08,-0.663 -0.046,-0.22 -0.109,-0.437 -0.185,-0.635 -0.076,-0.198 -0.164,-0.379 -0.26,-0.532 -0.096,-0.152 -0.2,-0.275 -0.308,-0.357 L 5.827,49.588 C 5.728,49.512 5.636,49.482 5.553,49.494 5.47,49.505 5.398,49.557 5.339,49.645 c -0.06,0.088 -0.106,0.21 -0.136,0.363 -0.029,0.151 -0.042,0.334 -0.035,0.541"
         id="path22"
         inkscape:connector-curvature="0"
         style="fill:#000000" />
      <path
         d="m 4.482,31.412 0.431,12.009 c 0.007,0.21 0.034,0.426 0.077,0.634 0.042,0.209 0.101,0.412 0.17,0.597 0.069,0.185 0.15,0.354 0.238,0.494 0.089,0.14 0.185,0.252 0.284,0.325 l 5.839,4.302 c 0.108,0.08 0.209,0.111 0.302,0.1 0.092,-0.012 0.173,-0.066 0.241,-0.158 0.067,-0.092 0.121,-0.223 0.155,-0.384 0.035,-0.163 0.051,-0.358 0.044,-0.579 L 11.891,36.12 c -0.007,-0.226 -0.036,-0.456 -0.082,-0.678 -0.047,-0.222 -0.11,-0.436 -0.187,-0.63 -0.077,-0.194 -0.167,-0.368 -0.265,-0.511 -0.097,-0.143 -0.202,-0.254 -0.312,-0.322 l -5.899,-3.68 c -0.1,-0.062 -0.193,-0.078 -0.277,-0.052 -0.083,0.025 -0.157,0.092 -0.217,0.193 -0.06,0.101 -0.106,0.236 -0.136,0.4 -0.029,0.164 -0.042,0.357 -0.034,0.572"
         id="path24"
         inkscape:connector-curvature="0"
         style="fill:#000000" />
      <path
         d="m 3.777,11.76 0.445,12.427 c 0.008,0.217 0.036,0.437 0.079,0.646 0.043,0.21 0.102,0.411 0.172,0.592 0.07,0.182 0.152,0.344 0.242,0.475 0.089,0.131 0.186,0.232 0.286,0.292 l 5.915,3.507 c 0.11,0.065 0.213,0.081 0.306,0.053 0.093,-0.027 0.175,-0.098 0.243,-0.205 0.069,-0.107 0.123,-0.252 0.157,-0.426 0.035,-0.175 0.051,-0.38 0.044,-0.609 L 11.28,15.415 C 11.274,15.181 11.243,14.946 11.197,14.723 11.15,14.5 11.085,14.287 11.007,14.098 10.929,13.909 10.839,13.742 10.739,13.61 10.641,13.479 10.533,13.38 10.423,13.327 L 4.449,10.489 C 4.348,10.441 4.253,10.441 4.168,10.482 4.084,10.523 4.01,10.604 3.949,10.72 3.888,10.835 3.841,10.984 3.811,11.159 3.781,11.334 3.769,11.537 3.777,11.76"
         id="path26"
         inkscape:connector-curvature="0"
         style="fill:#000000" />
      <path
         d="m 14.574,57.87 0.341,12.353 c 0.006,0.215 0.033,0.441 0.08,0.663 0.046,0.225 0.11,0.444 0.187,0.649 0.077,0.208 0.167,0.399 0.266,0.562 0.1,0.166 0.208,0.303 0.32,0.401 l 6.64,5.811 c 0.123,0.106 0.239,0.163 0.345,0.175 0.105,0.009 0.2,-0.026 0.278,-0.104 0.079,-0.077 0.142,-0.198 0.184,-0.354 0.042,-0.158 0.062,-0.352 0.058,-0.581 L 23.011,64.436 c -0.004,-0.23 -0.034,-0.474 -0.085,-0.713 -0.051,-0.238 -0.121,-0.472 -0.207,-0.689 -0.085,-0.216 -0.187,-0.415 -0.296,-0.585 -0.111,-0.169 -0.231,-0.307 -0.355,-0.402 l -6.719,-5.155 c -0.113,-0.087 -0.22,-0.124 -0.316,-0.117 -0.096,0.006 -0.181,0.058 -0.251,0.146 -0.069,0.088 -0.125,0.216 -0.161,0.376 -0.036,0.159 -0.053,0.351 -0.047,0.573"
         id="path28"
         inkscape:connector-curvature="0"
         style="fill:#000000" />
      <path
         d="m 14.011,37.467 0.353,12.809 c 0.006,0.225 0.035,0.456 0.082,0.68 0.047,0.224 0.112,0.443 0.19,0.646 0.078,0.202 0.169,0.386 0.271,0.54 0.101,0.155 0.21,0.28 0.324,0.364 l 6.741,4.966 c 0.125,0.092 0.243,0.132 0.351,0.126 0.108,-0.006 0.203,-0.059 0.283,-0.152 0.08,-0.093 0.144,-0.229 0.186,-0.399 0.042,-0.171 0.064,-0.378 0.06,-0.615 L 22.58,42.912 C 22.576,42.671 22.545,42.423 22.494,42.183 22.442,41.943 22.37,41.71 22.283,41.498 22.196,41.286 22.094,41.094 21.981,40.936 21.87,40.778 21.747,40.653 21.621,40.574 l -6.824,-4.256 c -0.114,-0.071 -0.223,-0.093 -0.32,-0.069 -0.097,0.022 -0.183,0.089 -0.254,0.193 -0.07,0.104 -0.126,0.246 -0.163,0.419 -0.039,0.172 -0.056,0.376 -0.049,0.606"
         id="path30"
         inkscape:connector-curvature="0"
         style="fill:#000000" />
      <path
         d="m 13.431,16.463 0.367,13.288 c 0.007,0.233 0.036,0.468 0.084,0.694 0.048,0.227 0.113,0.444 0.193,0.641 0.08,0.197 0.173,0.374 0.274,0.519 0.103,0.145 0.214,0.258 0.33,0.326 l 6.845,4.06 c 0.127,0.076 0.247,0.098 0.356,0.074 0.109,-0.024 0.207,-0.096 0.288,-0.207 0.081,-0.111 0.145,-0.263 0.188,-0.448 0.043,-0.186 0.065,-0.404 0.06,-0.65 L 22.133,20.704 C 22.128,20.452 22.096,20.199 22.044,19.957 21.992,19.715 21.918,19.484 21.83,19.278 21.742,19.072 21.638,18.889 21.523,18.742 21.409,18.596 21.285,18.487 21.156,18.425 L 14.227,15.134 C 14.11,15.078 14,15.075 13.902,15.115 c -0.099,0.039 -0.186,0.124 -0.258,0.245 -0.072,0.121 -0.128,0.277 -0.166,0.464 -0.037,0.186 -0.054,0.401 -0.047,0.639"
         id="path32"
         inkscape:connector-curvature="0"
         style="fill:#000000" />
      <path
         d="m 25.413,66.306 0.236,13.192 c 0.004,0.231 0.034,0.475 0.085,0.716 0.052,0.24 0.123,0.481 0.21,0.706 0.087,0.227 0.19,0.437 0.304,0.621 0.114,0.182 0.239,0.337 0.369,0.453 l 7.724,6.759 c 0.144,0.125 0.28,0.196 0.405,0.215 0.125,0.021 0.237,-0.01 0.33,-0.085 0.094,-0.075 0.17,-0.198 0.221,-0.363 0.052,-0.166 0.08,-0.371 0.078,-0.614 L 35.25,73.962 c -0.002,-0.25 -0.035,-0.512 -0.09,-0.77 -0.057,-0.26 -0.137,-0.517 -0.235,-0.756 -0.098,-0.238 -0.214,-0.46 -0.342,-0.65 -0.128,-0.189 -0.268,-0.348 -0.414,-0.459 l -7.834,-6.011 c -0.132,-0.102 -0.257,-0.148 -0.369,-0.148 -0.113,0 -0.213,0.048 -0.296,0.14 -0.083,0.088 -0.149,0.221 -0.193,0.389 -0.046,0.167 -0.068,0.372 -0.064,0.609"
         id="path34"
         inkscape:connector-curvature="0"
         style="fill:#000000" />
      <path
         d="m 25.021,44.463 0.246,13.72 c 0.004,0.24 0.035,0.488 0.087,0.731 0.051,0.244 0.125,0.481 0.213,0.702 0.089,0.221 0.194,0.424 0.31,0.597 0.116,0.172 0.243,0.313 0.375,0.412 l 7.866,5.793 c 0.146,0.108 0.286,0.161 0.413,0.161 0.127,0.002 0.241,-0.048 0.336,-0.142 0.096,-0.095 0.173,-0.236 0.226,-0.416 0.053,-0.181 0.081,-0.401 0.079,-0.655 L 35.04,50.831 c -0.002,-0.261 -0.035,-0.529 -0.093,-0.79 -0.058,-0.261 -0.139,-0.516 -0.24,-0.75 -0.1,-0.234 -0.219,-0.446 -0.349,-0.623 -0.13,-0.177 -0.273,-0.319 -0.421,-0.412 l -7.98,-4.978 c -0.135,-0.084 -0.261,-0.113 -0.376,-0.094 -0.114,0.019 -0.216,0.085 -0.3,0.192 -0.084,0.107 -0.152,0.256 -0.197,0.439 -0.044,0.185 -0.068,0.403 -0.063,0.648"
         id="path36"
         inkscape:connector-curvature="0"
         style="fill:#000000" />
      <path
         d="m 24.924,21.913 0.256,14.274 c 0.005,0.249 0.036,0.503 0.089,0.748 0.052,0.245 0.127,0.481 0.217,0.697 0.091,0.216 0.197,0.411 0.315,0.571 0.118,0.161 0.248,0.288 0.382,0.368 l 8.011,4.751 c 0.149,0.088 0.292,0.12 0.421,0.1 0.13,-0.02 0.246,-0.09 0.343,-0.206 0.098,-0.114 0.176,-0.273 0.229,-0.471 0.054,-0.197 0.083,-0.431 0.08,-0.695 L 35.13,26.886 C 35.127,26.614 35.093,26.34 35.035,26.076 34.976,25.813 34.892,25.56 34.79,25.333 34.688,25.106 34.567,24.904 34.434,24.74 34.301,24.577 34.155,24.453 34.003,24.382 L 25.874,20.52 c -0.137,-0.064 -0.266,-0.074 -0.382,-0.035 -0.117,0.039 -0.22,0.125 -0.306,0.251 -0.086,0.126 -0.154,0.292 -0.2,0.491 -0.046,0.199 -0.067,0.431 -0.062,0.686"
         id="path38"
         inkscape:connector-curvature="0"
         style="fill:#000000" />
      <path
         d="m 53.511,22.979 -14.146,1.579 c -0.256,0.028 -0.5,0.112 -0.721,0.24 -0.223,0.127 -0.422,0.298 -0.59,0.5 -0.168,0.202 -0.303,0.436 -0.396,0.688 -0.093,0.252 -0.144,0.524 -0.142,0.804 l 0.104,15.518 c 0.001,0.27 0.055,0.521 0.15,0.743 0.094,0.222 0.23,0.414 0.397,0.569 0.167,0.154 0.366,0.27 0.584,0.339 0.219,0.068 0.46,0.089 0.711,0.054 l 13.906,-1.958 c 0.241,-0.034 0.472,-0.12 0.682,-0.247 0.209,-0.126 0.397,-0.293 0.557,-0.489 0.159,-0.195 0.289,-0.42 0.38,-0.661 0.09,-0.242 0.143,-0.5 0.145,-0.764 L 55.267,24.756 C 55.269,24.485 55.222,24.231 55.133,24.005 55.046,23.778 54.918,23.58 54.759,23.42 54.6,23.259 54.41,23.135 54.198,23.059 53.986,22.983 53.755,22.952 53.511,22.979"
         id="path40"
         inkscape:connector-curvature="0"
         style="fill:#000000" />
      <path
         d="m 74.985,20.582 -13.221,1.476 c -0.24,0.027 -0.469,0.107 -0.678,0.229 -0.21,0.123 -0.399,0.287 -0.559,0.482 -0.16,0.195 -0.29,0.421 -0.381,0.665 -0.091,0.245 -0.145,0.508 -0.147,0.778 l -0.195,15.037 c -0.003,0.262 0.04,0.506 0.124,0.721 0.084,0.215 0.208,0.403 0.36,0.553 0.152,0.15 0.335,0.264 0.538,0.332 0.203,0.068 0.428,0.089 0.662,0.056 l 13.014,-1.833 c 0.224,-0.032 0.441,-0.114 0.639,-0.236 0.198,-0.122 0.377,-0.283 0.531,-0.472 0.151,-0.189 0.277,-0.406 0.365,-0.64 0.089,-0.234 0.142,-0.485 0.149,-0.74 l 0.403,-14.679 c 0.007,-0.264 -0.032,-0.51 -0.109,-0.729 -0.078,-0.22 -0.194,-0.412 -0.339,-0.568 -0.146,-0.157 -0.32,-0.277 -0.517,-0.352 -0.193,-0.076 -0.409,-0.105 -0.639,-0.08"
         id="path42"
         inkscape:connector-curvature="0"
         style="fill:#000000" />
      <path
         d="m 94.94,18.355 -12.39,1.383 c -0.223,0.024 -0.438,0.102 -0.635,0.219 -0.198,0.118 -0.378,0.277 -0.531,0.466 -0.153,0.189 -0.28,0.407 -0.37,0.644 -0.089,0.237 -0.143,0.492 -0.15,0.754 l -0.457,14.587 c -0.007,0.254 0.03,0.491 0.104,0.701 0.075,0.209 0.187,0.392 0.326,0.538 0.141,0.147 0.31,0.258 0.498,0.325 0.189,0.067 0.396,0.089 0.617,0.057 l 12.207,-1.718 c 0.212,-0.03 0.415,-0.109 0.603,-0.227 0.188,-0.117 0.358,-0.272 0.505,-0.456 0.146,-0.183 0.267,-0.393 0.355,-0.62 0.087,-0.227 0.141,-0.47 0.151,-0.719 l 0.639,-14.251 c 0.012,-0.256 -0.021,-0.495 -0.09,-0.708 -0.068,-0.213 -0.174,-0.4 -0.308,-0.553 -0.133,-0.152 -0.295,-0.27 -0.477,-0.344 -0.18,-0.073 -0.383,-0.102 -0.597,-0.078"
         id="path44"
         inkscape:connector-curvature="0"
         style="fill:#000000" />
      <path
         d="m 53.334,47.033 -13.845,2.055 c -0.25,0.038 -0.489,0.127 -0.706,0.258 -0.217,0.13 -0.413,0.302 -0.577,0.502 -0.164,0.201 -0.296,0.429 -0.387,0.675 -0.091,0.245 -0.141,0.508 -0.139,0.773 l 0.1,14.86 c 0.002,0.26 0.054,0.498 0.147,0.707 0.092,0.209 0.226,0.389 0.389,0.53 0.163,0.142 0.357,0.245 0.572,0.302 0.214,0.06 0.45,0.068 0.695,0.026 L 53.2,65.319 c 0.235,-0.04 0.461,-0.133 0.666,-0.263 0.205,-0.129 0.391,-0.295 0.547,-0.488 0.155,-0.193 0.283,-0.413 0.371,-0.649 0.089,-0.235 0.139,-0.484 0.141,-0.737 l 0.129,-14.514 c 0.002,-0.26 -0.044,-0.501 -0.13,-0.714 -0.085,-0.213 -0.211,-0.398 -0.366,-0.546 -0.155,-0.148 -0.342,-0.259 -0.549,-0.325 -0.208,-0.065 -0.436,-0.085 -0.675,-0.05"
         id="path46"
         inkscape:connector-curvature="0"
         style="fill:#000000" />
      <path
         d="m 74.376,43.91 -12.957,1.923 c -0.235,0.035 -0.46,0.121 -0.665,0.247 -0.204,0.125 -0.39,0.291 -0.547,0.484 -0.156,0.194 -0.284,0.415 -0.373,0.652 -0.089,0.237 -0.14,0.492 -0.144,0.75 l -0.188,14.421 c -0.004,0.252 0.04,0.482 0.123,0.688 0.082,0.202 0.202,0.377 0.352,0.517 0.149,0.138 0.329,0.241 0.527,0.298 0.199,0.057 0.419,0.068 0.65,0.028 l 12.757,-2.252 c 0.221,-0.038 0.434,-0.126 0.627,-0.251 0.195,-0.124 0.371,-0.286 0.521,-0.473 0.149,-0.186 0.271,-0.399 0.359,-0.628 0.087,-0.228 0.139,-0.47 0.145,-0.716 l 0.389,-14.093 c 0.007,-0.252 -0.032,-0.486 -0.108,-0.694 -0.076,-0.207 -0.189,-0.387 -0.332,-0.532 -0.143,-0.145 -0.313,-0.254 -0.506,-0.318 -0.193,-0.064 -0.405,-0.084 -0.63,-0.051"
         id="path48"
         inkscape:connector-curvature="0"
         style="fill:#000000" />
      <path
         d="m 93.956,41.004 -12.158,1.805 c -0.22,0.032 -0.431,0.114 -0.625,0.235 -0.194,0.121 -0.37,0.28 -0.521,0.468 -0.149,0.187 -0.273,0.401 -0.361,0.631 -0.088,0.231 -0.14,0.477 -0.148,0.728 l -0.438,14.008 c -0.009,0.244 0.029,0.47 0.103,0.668 0.074,0.198 0.183,0.369 0.321,0.505 0.138,0.135 0.303,0.235 0.488,0.293 0.186,0.057 0.39,0.068 0.605,0.03 l 11.982,-2.114 c 0.209,-0.036 0.409,-0.12 0.593,-0.239 0.185,-0.12 0.352,-0.276 0.496,-0.457 0.143,-0.182 0.262,-0.388 0.347,-0.609 0.086,-0.221 0.139,-0.456 0.149,-0.694 L 95.402,42.563 C 95.413,42.317 95.381,42.089 95.313,41.888 95.247,41.686 95.142,41.51 95.011,41.369 94.88,41.227 94.722,41.121 94.542,41.057 94.366,40.993 94.166,40.973 93.956,41.004"
         id="path50"
         inkscape:connector-curvature="0"
         style="fill:#000000" />
      <path
         d="m 53.165,70.052 -13.558,2.489 c -0.244,0.045 -0.478,0.142 -0.69,0.273 -0.213,0.133 -0.404,0.305 -0.564,0.503 -0.161,0.198 -0.291,0.423 -0.379,0.661 -0.089,0.238 -0.138,0.491 -0.137,0.748 l 0.096,14.246 c 0.002,0.248 0.053,0.475 0.144,0.673 0.091,0.196 0.221,0.363 0.38,0.493 0.16,0.13 0.35,0.222 0.561,0.27 0.21,0.047 0.44,0.049 0.681,-0.003 l 13.338,-2.807 c 0.23,-0.05 0.451,-0.145 0.653,-0.276 0.2,-0.132 0.382,-0.3 0.535,-0.491 0.152,-0.191 0.277,-0.408 0.364,-0.635 0.087,-0.229 0.136,-0.473 0.138,-0.716 L 54.851,71.553 C 54.854,71.303 54.807,71.074 54.724,70.872 54.64,70.67 54.517,70.498 54.364,70.363 54.212,70.226 54.03,70.127 53.827,70.073 53.623,70.019 53.4,70.008 53.165,70.052"
         id="path52"
         inkscape:connector-curvature="0"
         style="fill:#000000" />
      <path
         d="m 73.793,66.264 -12.706,2.332 c -0.23,0.043 -0.45,0.134 -0.65,0.262 -0.2,0.128 -0.383,0.293 -0.536,0.484 -0.153,0.191 -0.278,0.408 -0.366,0.64 -0.087,0.231 -0.137,0.478 -0.14,0.725 l -0.181,13.842 c -0.004,0.243 0.04,0.463 0.12,0.657 0.08,0.19 0.199,0.354 0.346,0.481 0.146,0.127 0.322,0.22 0.518,0.267 0.196,0.047 0.41,0.052 0.637,0.002 l 12.513,-2.632 c 0.218,-0.048 0.425,-0.14 0.616,-0.265 0.19,-0.128 0.362,-0.288 0.51,-0.475 0.146,-0.185 0.268,-0.395 0.353,-0.616 0.085,-0.221 0.136,-0.456 0.142,-0.691 l 0.374,-13.542 c 0.006,-0.243 -0.032,-0.468 -0.107,-0.664 -0.074,-0.195 -0.187,-0.363 -0.326,-0.498 -0.141,-0.132 -0.309,-0.231 -0.498,-0.285 -0.19,-0.056 -0.399,-0.064 -0.619,-0.024"
         id="path54"
         inkscape:connector-curvature="0"
         style="fill:#000000" />
      <path
         d="m 93.012,62.732 -11.938,2.192 c -0.215,0.04 -0.423,0.127 -0.613,0.25 -0.189,0.123 -0.363,0.283 -0.51,0.468 -0.146,0.184 -0.268,0.395 -0.354,0.619 -0.087,0.225 -0.139,0.464 -0.146,0.705 L 79.03,80.431 c -0.007,0.236 0.03,0.451 0.102,0.638 0.072,0.188 0.181,0.35 0.315,0.473 0.136,0.125 0.298,0.214 0.479,0.262 0.183,0.05 0.384,0.054 0.595,0.01 l 11.77,-2.479 c 0.202,-0.042 0.399,-0.13 0.58,-0.253 0.181,-0.12 0.346,-0.275 0.486,-0.455 0.142,-0.18 0.258,-0.383 0.342,-0.6 0.085,-0.215 0.136,-0.444 0.146,-0.673 l 0.59,-13.179 c 0.011,-0.237 -0.021,-0.455 -0.089,-0.646 -0.065,-0.191 -0.167,-0.355 -0.296,-0.486 -0.13,-0.13 -0.286,-0.227 -0.461,-0.281 -0.175,-0.055 -0.37,-0.067 -0.577,-0.03"
         id="path56"
         inkscape:connector-curvature="0"
         style="fill:#000000" />
    </g>
  </g>
  <g
     id="SvgjsG1014"
     featurekey="text1"
     transform="matrix(3.9712837,0,0,3.9712837,100.00014,-28.634696)"
     style="fill:#000000"
     inkscape:export-filename="/home/bram/SvgjsG1015.png"
     inkscape:export-xdpi="529.92657"
     inkscape:export-ydpi="529.92657">
    <path
       d="m 0.80078,9.990375 h 2.6367 q 0.039063,0.00977 0.039063,0.048828 v 6.7969 q 0,0.04883 -0.039063,0.04883 h -0.3125 v 7.0508 q 0,0.04883 -0.048828,0.04883 H 0.80075187 q -0.0488281,0 -0.0488281,-0.04883 v -7.2168 h -0.70313 q -0.048828125,0 -0.048828125,-0.04883 v -0.30273 q 0.009765625,-0.04883 0.048828125,-0.04883 h 0.70313 v -6.2793 q 0.009766,-0.048828 0.0488281,-0.048828 z m -0.0293,6.328 v 0.40039 h 1.3477 v -0.40039 z m 3.33985,-6.309 h 3.6035 q 3.164062,0 4.042969,1.630859 0.517578,1.035157 0.517578,2.626954 -0.0293,0.283203 -0.0293,0.576171 h 2.002 v 0.67383 h -2.0703 v -0.01953 q 0.04883,-0.605468 0.04883,-0.654296 h -1.1621 v 0.67383 h 1.1133 v 2.372999 H 9.8731081 v 0.82031 h -0.019531 q -2.6660156,0.01953 -3.0175781,0.01953 v 1.2305 h -0.48828 v 2.1875 h 0.27344 v 1.8359 h -2.1875 v -0.85938 h -0.30273 v -0.72266 q 0,-1.25 -0.019531,-4.072266 h 1.3281 v -0.71289 h -1.3281 v -7.6074 z m 2.72462,2.373 v 3.9746 h 0.83008 v -0.57617 h 1.6504 q 0.3320313,-0.302734 0.3320313,-1.699219 0,-1.33789 -0.6054688,-1.533203 -0.2246094,-0.166016 -1.0253906,-0.166016 h -1.1816 z m 5.5078,3.2817 h 0.06836 q 0.117187,0.09766 0.117187,0.185547 l 0.15625,-0.18555 h 0.09766 v 0.03906 Q 12.59766,15.957038 12.59766,16.191413 H 12.5293 q -0.04883,0 -0.06836,-0.273437 -0.03906,0 -0.166015,-0.234375 z m -0.0293,0.6933 h 0.41992 v 0.11719 h -0.13672 v 0.37109 q 0,0.04883 -0.04883,0.04883 h -0.04883 q -0.03906,0 -0.03906,-0.04883 v -0.37109 h -0.14648 z m 2.412112,-6.357 h 7.0215 v 2.3242 h -4.2383 v 3.3203 h 3.6523 l 0.04883,0.0293 -0.0293,0.04883 q -0.01953,0.703125 -0.01953,0.820312 h -0.40039 v 0.01953 q 0,0.253907 -0.04883,1.083985 h 0.37109 q 0,0.40039 -0.06836,0.40039 h -2.5684 v 0.47852 h -1.3379 v 0.25391 h 0.40039 v 1.2207 h 1.3379 v 0.21484 h -1.3379 v 3.3887 l -0.01953,0.16602 h -1.4453 v 0.21484 h -1.2695 q -0.04883,0 -0.04883,-0.04883 v -0.35156 l 0.0293,-0.23438 h 0.68359 v -0.35156 h -0.71289 v -1.3477 h 0.33203 v -4.9414 h 0.56641 v -0.35156 h -0.89844 v -6.3574 z m -0.23437,9.277 h 0.09766 q 0.04883,0 0.04883,0.04883 v 0.32227 q 0.0098,0.146484 0.06836,0.146484 h 0.09766 q 0.0293,0 0.06836,-0.06836 v -0.40039 q 0.0098,-0.04883 0.04883,-0.04883 h 0.08789 v 0.44922 q 0,0.205078 -0.283203,0.205078 -0.234375,-0.0293 -0.234375,-0.205078 v -0.44922 z m 3.06638,0.2343 h 0.01953 q 0.371094,0.166016 0.429687,0.166016 v 0.13672 l -0.42969,0.14648 h -0.01953 v -0.07813 q 0,-0.0293 0.283203,-0.136719 v -0.01953 q -0.04883,0 -0.283203,-0.09766 v -0.11719 z m -1.3476,0.4883 v 0.21484 h 1.2793 v -0.21484 z m -1.52347,0.0977 h 0.01953 q 0.253906,0 0.253906,0.214844 h -0.15625 q 0,-0.09766 -0.117187,-0.09766 -0.03906,0 -0.07813,0.06836 0.351562,0.136719 0.351562,0.195312 0,0.01953 0.0293,0.06836 0,0.175781 -0.283203,0.214843 -0.263672,-0.03906 -0.263672,-0.24414 h 0.16602 q 0,0.09766 0.04883,0.09766 h 0.11719 q 0.04883,0 0.04883,-0.04883 v -0.04883 q -0.351562,-0.08789 -0.351562,-0.185547 v -0.08789 q 0.07813,-0.146484 0.214844,-0.146484 z m -0.24414,0.8203 h 0.07813 q 0.136719,0 0.185547,0.195312 l 0.16602,-0.19531 h 0.11719 v 0.04883 q -0.166016,0.22461 -0.166016,0.3125 0.0293,0 0.185547,0.253907 v 0.0293 h -0.13672 q -0.01953,0 -0.166016,-0.195313 -0.08789,0.175781 -0.146484,0.195313 h -0.13672 q 0.166016,-0.292969 0.214844,-0.3125 -0.195313,-0.283203 -0.195313,-0.332032 z m 12.705113,-10.8886 q 2.324219,0 3.115234,1.494141 0.546875,1.132812 0.546875,2.216797 h -0.01953 q -1.591797,0.136718 -2.177734,0.136718 0,-0.771484 -0.478516,-1.298828 -0.449218,-0.253906 -0.830078,-0.253906 h -0.39063 q -0.996094,0 -1.210937,0.771484 -0.04883,0.22461 -0.04883,0.351563 v 0.20508 q 0,1.09375 1.152343,1.582031 0.09766,0.08789 1.601563,0.732422 0.800781,0.371094 1.484375,0.917969 v 0.01953 h -2.4512 v 0.27344 h 3.2324 v 0.39063 h 0.41016 v 4.2383 h -0.80078 v 2.1777 h -6.2109 v -2.1777 h -1.4648 v -1.4648 h 0.83008 v -0.50781 h -0.83008 v -0.3418 h 2.8418 v 2.3145 h 2.9102 v -3.4863 h -2.1777 v -1.1426 h -2.7051 v -0.27344 h 1.3086 v -0.01953 q -1.71875,-1.142578 -1.71875,-3.232422 v -0.18555 q 0,-1.748047 1.074219,-2.65625 0.976562,-0.78125 3.007812,-0.78125 z m 3.5254,6.8749 h 0.98633 v 0.27344 h -0.98633 z m -9.00395,2.9297 h 0.9375 v 0.50781 h -0.9375 z m 6.25975,0 h 0.29297 q 0.04883,0.0098 0.04883,0.04883 v 0.06836 h -0.25391 v 0.08789 h 0.22461 v 0.06836 q 0,0.04883 -0.03906,0.04883 h -0.18555 v 0.09766 h 0.25391 v 0.06836 q 0,0.03906 -0.04883,0.03906 h -0.29297 q -0.04883,0 -0.04883,-0.03906 v -0.43945 q 0.0098,-0.04883 0.04883,-0.04883 z m -0.1172,0.6934 h 0.08789 q 0.01953,0 0.166016,0.175781 0.06836,-0.175781 0.107421,-0.175781 h 0.06836 q 0.04883,0 0.04883,0.03906 -0.205079,0.234375 -0.205079,0.488282 h -0.06836 q -0.04883,0 -0.06836,-0.273438 -0.136719,-0.185547 -0.136719,-0.253906 z m -0.0683,0.6836 h 0.08789 q 0.05859,0 0.117187,0.302734 h 0.04883 q 0.05859,-0.302734 0.107422,-0.302734 h 0.09766 q 0.03906,0.0098 0.03906,0.04883 v 0.42969 q 0,0.04883 -0.03906,0.04883 H 28.1348 v -0.29297 h -0.0293 l -0.08789,0.29297 h -0.06836 q -0.04883,0 -0.117187,-0.292968 h -0.01953 v 0.29297 h -0.06836 q -0.04883,0 -0.04883,-0.04883 v -0.42969 q 0.0098,-0.04883 0.04883,-0.04883 z m 2.6757,0.7129 h 0.23438 q 0.185547,0 0.185547,0.185547 -0.04883,0 -0.04883,0.03906 0.06836,0.08789 0.06836,0.166016 -0.05859,0.136719 -0.253906,0.136719 h -0.13672 q -0.04883,0 -0.04883,-0.04883 v -0.47852 z m 0.1368,0.1171 v 0.08789 h 0.09766 q 0.03906,0 0.03906,-0.04883 v -0.03906 z m 0,0.1758 v 0.11719 h 0.11719 q 0.04883,0 0.04883,-0.04883 v -0.01953 q 0,-0.04883 -0.04883,-0.04883 z m -0.1368,0.3906 h 0.09766 q 0.04883,0 0.205078,0.322266 h 0.01953 v -0.32227 h 0.11719 v 0.47852 q 0,0.04883 -0.04883,0.04883 h -0.04883 q -0.01953,0 -0.224609,-0.292969 v 0.24414 q 0,0.04883 -0.04883,0.04883 h -0.01953 q -0.04883,0 -0.04883,-0.04883 v -0.47852 z m 6.347703,-12.627 h 2.9688 q 0.0293,0.244141 1.123047,5.458984 h 0.61523 v 0.53711 h -0.74219 v -0.53711 h -1.0449 v 0.53711 h 1.0449 v 2.5098 h 0.33203 v 1.2988 h 0.82031 v -1.9141 h 0.3125 v -1.8945 h 0.58594 v -0.53711 h -0.45898 q 1.09375,-5.214843 1.123047,-5.458984 h 2.9688 q -1.611328,7.011719 -1.611328,7.148437 v 2.4316 h -0.82031 v 0.47852 h 0.61523 v 1.4355 h -1.1035 v 2.5098 h -3.4766 q -0.04883,0 -0.283203,-1.074218 h 0.89844 v -0.58594 h -0.99609 q -0.06836,0 -0.283203,-1.132813 -0.107422,-0.341797 -2.587891,-11.2109373 z m 10.673827,0.01 h 2.6367 q 0.03906,0.00977 0.03906,0.048828 v 6.7969 q 0,0.04883 -0.03906,0.04883 h -0.3125 v 7.0508 q 0,0.04883 -0.04883,0.04883 h -2.2754 q -0.04883,0 -0.04883,-0.04883 v -7.2168 h -0.70313 q -0.04883,0 -0.04883,-0.04883 v -0.30273 q 0.0098,-0.04883 0.04883,-0.04883 h 0.70313 v -6.2793 q 0.0098,-0.048828 0.04883,-0.048828 z m -0.0293,6.328 v 0.40039 h 1.3477 v -0.40039 z m 3.81836,-6.299 h 4.2578 q 2.65625,0 3.652344,1.806641 0.859375,1.40625 0.859375,4.667968 h 0.41992 v 3.3398 h -4.1406 v -0.38086 h 1.2988 v -2.959 h -0.38086 v -1.2207 q 0,-2.060546 -0.917969,-2.626953 -0.537109,-0.302734 -1.728516,-0.302734 h -0.57617 v 4.082 h 0.39063 v 3.4082 h -2.793 v -3.1543 h -0.3418 v -6.6602 z m -1.24023,9.8146 h 1.2598 v 0.43945 h 3.1152 v 0.91797 h 1.9141 v -0.91797 h 4.1406 v 0.91797 h -2.8418 v 2.4902 h -3.2129 v 0.30273 h -3.0859 q -0.04883,0 -0.04883,-0.04883 v -3.6621 h -1.2402 v -0.43945 z m 4.37504,0 h 1.9141 v 0.43945 h -1.9141 z m 6.0546,0 h 2.7441 v 0.43945 h -2.7441 z m 1.21098,-9.7456 h 6.8457 v 2.2754 q 0,0.04883 -0.04883,0.04883 h -4.0625 v 3.0078 h 3.6426 v 0.0293 q 0,0.126953 -0.03906,1.474609 -0.0293,0 -0.0293,0.01953 h 0.16602 v 0.70313 h -3.1543 v 2.8516 h -0.84961 v 0.2832 h 0.84961 v 0.86914 h 3.5742 v 0.32227 h -0.2832 v 1.709 h -4.277299 v 0.30273 h -2.0313 v -4.9805 h -0.30273 v -1.7578 h -2.2266 v -0.30273 h 2.2266 v -6.8555 z m 0.01954,6.855 v 0.30273 h 1.1426 v -0.30273 z m 13.300783,-6.934 q 3.007813,0 3.955078,2.099609 0.53711,1.025391 0.53711,3.955078 v 0.06836 h -1.0352 v 0.46875 h 1.0352 v 5.0488 h -0.68359 v 1.8164 h -1.3574 v 0.51758 h -4.7461 v -0.51758 h -0.57617 v -1.8164 h -1.2207 v -1.4258 h 0.72266 v -0.75195 h -0.72266 v 0.75195 h -1.7285 v -0.75195 h 1.3086 q -0.01953,-1.708984 -0.01953,-2.617187 v -1.1914 q 0,-3.320312 1.123047,-4.443359 1.025391,-1.210938 3.408203,-1.210938 z m -1.709,4.8148 h 0.0293 l -0.0293,0.03906 v 1.2695 h -1.0449 v 0.46875 h 1.0449 q -0.01953,3.017578 -0.01953,4.550781 v 0.49805 h 2.334 v -0.77148 h 1.0742 v -0.0293 q 0,-1.425781 -0.01953,-3.974609 0,-0.107422 0.01953,-0.53711 0,-2.753906 -0.322266,-3.388671 -0.332031,-0.605469 -1.220703,-0.605469 h -0.3418 q -1.064453,0 -1.318359,0.9375 -0.117188,0.458984 -0.185547,1.542969 z m 6.2012,1.3086 h 1.6797 v 0.46875 h -1.6797 z"
       id="path61"
       inkscape:connector-curvature="0" />
  </g>
  <g
     id="SvgjsG1015"
     featurekey="text3"
     transform="matrix(1.1794494,0,0,1.1794494,98.938494,70.488573)"
     style="fill:#000000"
     inkscape:export-filename="/home/bram/SvgjsG1015.png"
     inkscape:export-xdpi="529.92657"
     inkscape:export-ydpi="529.92657">
    <path
       d="m 12.84,22.5 c -1.26,1.1 -2.9,1.7 -4.72,1.7 -3.76,0 -7.22,-2.96 -7.22,-7.2 0,-4.24 3.46,-7.2 7.22,-7.2 1.8,0 3.42,0.6 4.66,1.66 l -1.34,1.52 C 10.56,12.3 9.42,11.88 8.26,11.88 5.54,11.88 3.18,14 3.18,17 c 0,3 2.36,5.12 5.08,5.12 1.18,0 2.36,-0.44 3.24,-1.16 z m 13.75734,1.5 -1.28,-2.96 h -7.16 l -1.28,2.96 h -2.34 l 6.24,-14 h 1.92 l 6.24,14 z m -7.64,-4.78 h 5.56 l -2.78,-6.44 z M 35.55468,9.76 c 2.3,0 3.88,1.48 4.54,2.92 l -1.64,0.94 c -0.7,-1.18 -1.6,-1.9 -2.9,-1.9 -1.3,0 -2.22,0.76 -2.22,1.8 0,0.98 0.62,1.58 1.96,2.08 l 0.98,0.36 c 2.78,1.02 4.2,2.22 4.2,4.32 0,2.58 -2.46,4.02 -4.84,4.02 -2.44,0 -4.4,-1.46 -5,-3.44 l 1.72,-0.88 c 0.5,1.28 1.58,2.32 3.28,2.32 1.4,0 2.56,-0.74 2.56,-2 0,-1.34 -0.9,-1.88 -2.5,-2.48 l -0.96,-0.36 c -2.1,-0.78 -3.58,-1.84 -3.58,-4.02 0,-2.12 1.92,-3.68 4.4,-3.68 z M 52.21202,10 v 2.04 h -3.72 V 24 h -2.2 V 12.04 h -3.72 V 10 Z m 18.43468,0 v 2.04 h -3.72 V 24 h -2.2 V 12.04 h -3.72 V 10 Z m 9.49734,-0.2 c 3.76,0 7.2,2.96 7.2,7.2 0,4.24 -3.44,7.2 -7.2,7.2 -3.76,0 -7.2,-2.96 -7.2,-7.2 0,-4.24 3.44,-7.2 7.2,-7.2 z m 0,12.32 c 2.58,0 4.92,-2.12 4.92,-5.12 0,-3 -2.34,-5.12 -4.92,-5.12 -2.58,0 -4.92,2.12 -4.92,5.12 0,3 2.34,5.12 4.92,5.12 z m 23.11734,-5.34 c 0.44,4.58 -2.62,7.42 -6.32,7.42 -3.84,0 -7.2,-2.96 -7.2,-7.2 0,-4.24 3.44,-7.2 7.2,-7.2 1.8,0 3.42,0.6 4.66,1.66 l -1.34,1.52 c -0.88,-0.68 -2.02,-1.1 -3.18,-1.1 -2.72,0 -5.06,2.12 -5.06,5.12 0,3 2.26,5.12 4.92,5.12 2.22,0 3.86,-1.02 4.28,-3.44 h -3.74 v -1.9 z m 4.93734,5.18 h 6.34 V 24 h -6.74 -1.8 V 10 h 2.2 6.16 v 2.04 h -6.16 v 3.92 h 4.74 v 2 h -4.74 z M 126.47606,10 v 2.04 h -3.72 V 24 h -2.2 V 12.04 h -3.72 V 10 Z m 11.27734,0 h 2.2 v 14 h -2.2 v -5.92 h -6.48 V 24 h -2.2 V 10 h 2.2 v 6.04 h 6.48 z m 7.39734,11.96 h 6.34 V 24 h -6.74 -1.8 V 10 h 2.2 6.16 v 2.04 h -6.16 v 3.92 h 4.74 v 2 h -4.74 z M 164.78808,24 h -2.36 l -3.3,-4.88 h -0.24 -2.5 V 24 h -2.2 V 10 h 4.7 c 3.14,0 5.06,1.92 5.06,4.62 0,1.96 -1.02,3.46 -2.78,4.12 z m -8.4,-11.96 v 5.16 h 2.4 c 1.78,0 2.96,-0.84 2.96,-2.58 0,-1.74 -1.18,-2.58 -2.96,-2.58 z"
       id="path64"
       inkscape:connector-curvature="0" />
  </g>
</svg>
